<svg width="185" height="38" viewBox="0 0 185 38" fill="none" xmlns="http://www.w3.org/2000/svg">
<path d="M173.704 26.38V23.68H184.18V26.38H180.4V37H177.484V26.38H173.704Z" fill="white"/>
<path d="M163.459 37H160.579V23.68H163.459L169.075 32.158V23.68H171.955V37H169.075L163.459 28.54V37Z" fill="white"/>
<path d="M158.194 37H149.734V23.68H158.194V26.38H152.65V28.99H157.564V31.546H152.65V34.3H158.194V37Z" fill="white"/>
<path d="M136.159 37H133.333V23.68H136.159L140.119 33.616L144.097 23.68H146.959V37H144.133V34.21C144.133 31.87 144.181 30.37 144.277 29.71L141.451 37H138.787L135.979 29.71C136.099 30.442 136.159 31.63 136.159 33.274V37Z" fill="white"/>
<path d="M130.948 37H122.488V23.68H130.948V26.38H125.404V28.99H130.318V31.546H125.404V34.3H130.948V37Z" fill="white"/>
<path d="M113.523 26.2C112.347 26.2 111.441 26.584 110.805 27.352C110.181 28.108 109.869 29.146 109.869 30.466C109.869 31.762 110.199 32.758 110.859 33.454C111.519 34.138 112.401 34.48 113.505 34.48C114.537 34.48 115.323 34.24 115.863 33.76C116.415 33.28 116.727 32.662 116.799 31.906H113.271V29.35H119.535V37H117.033L116.871 35.794C116.511 36.226 115.995 36.568 115.323 36.82C114.651 37.072 113.919 37.198 113.127 37.198C111.255 37.198 109.731 36.574 108.555 35.326C107.379 34.066 106.791 32.416 106.791 30.376C106.791 28.348 107.415 26.692 108.663 25.408C109.911 24.112 111.555 23.464 113.595 23.464C115.203 23.464 116.553 23.902 117.645 24.778C118.749 25.642 119.379 26.788 119.535 28.216H116.475C116.307 27.544 115.953 27.04 115.413 26.704C114.885 26.368 114.255 26.2 113.523 26.2Z" fill="white"/>
<path d="M97.411 37H94.369L99.121 23.68H101.965L106.699 37H103.603L102.667 34.192H98.365L97.411 37ZM100.165 28.9L99.211 31.744H101.839L100.885 28.9C100.681 28.276 100.561 27.844 100.525 27.604C100.477 27.916 100.357 28.348 100.165 28.9Z" fill="white"/>
<path d="M84.3226 37H81.4426V23.68H84.3226L89.9386 32.158V23.68H92.8186V37H89.9386L84.3226 28.54V37Z" fill="white"/>
<path d="M70.6044 37H67.5624L72.3144 23.68H75.1584L79.8924 37H76.7964L75.8604 34.192H71.5584L70.6044 37ZM73.3584 28.9L72.4044 31.744H75.0324L74.0784 28.9C73.8744 28.276 73.7544 27.844 73.7184 27.604C73.6704 27.916 73.5504 28.348 73.3584 28.9Z" fill="white"/>
<path d="M55.212 37H52.386V23.68H55.212L59.172 33.616L63.15 23.68H66.012V37H63.186V34.21C63.186 31.87 63.234 30.37 63.33 29.71L60.504 37H57.84L55.032 29.71C55.152 30.442 55.212 31.63 55.212 33.274V37Z" fill="white"/>
<path d="M92.2864 17H89.3704V3.68002H92.2864V8.93602H97.4344V3.68002H100.35V17H97.4344V11.636H92.2864V17Z" fill="white"/>
<path d="M77.6636 7.55001C77.6636 6.35001 78.1196 5.36601 79.0316 4.59801C79.9556 3.81801 81.1316 3.42801 82.5596 3.42801C83.9876 3.42801 85.1216 3.80001 85.9616 4.54401C86.8016 5.27601 87.2216 6.27201 87.2216 7.53201H84.3236C84.3236 7.06401 84.1616 6.69801 83.8376 6.43401C83.5136 6.15801 83.0756 6.02001 82.5236 6.02001C81.9236 6.02001 81.4496 6.14601 81.1016 6.39801C80.7536 6.65001 80.5796 6.99801 80.5796 7.44201C80.5796 7.83801 80.6876 8.15001 80.9036 8.37801C81.1196 8.59401 81.4616 8.75001 81.9296 8.84601L83.9276 9.26001C85.1276 9.50001 86.0096 9.92001 86.5736 10.52C87.1496 11.12 87.4376 11.942 87.4376 12.986C87.4376 14.27 86.9756 15.302 86.0516 16.082C85.1276 16.85 83.8976 17.234 82.3616 17.234C80.8736 17.234 79.6856 16.862 78.7976 16.118C77.9096 15.374 77.4656 14.378 77.4656 13.13H80.3636C80.3636 13.622 80.5376 14 80.8856 14.264C81.2336 14.516 81.7316 14.642 82.3796 14.642C83.0396 14.642 83.5616 14.522 83.9456 14.282C84.3296 14.03 84.5216 13.694 84.5216 13.274C84.5216 12.902 84.4256 12.614 84.2336 12.41C84.0536 12.206 83.7416 12.062 83.2976 11.978L81.2636 11.564C78.8636 11.072 77.6636 9.73401 77.6636 7.55001Z" fill="white"/>
<path d="M67.5634 17H64.5214L69.2734 3.68002H72.1174L76.8514 17H73.7554L72.8194 14.192H68.5174L67.5634 17ZM70.3174 8.90002L69.3634 11.744H71.9914L71.0374 8.90002C70.8334 8.27602 70.7134 7.84402 70.6774 7.60402C70.6294 7.91602 70.5094 8.34802 70.3174 8.90002Z" fill="white"/>
<path d="M58.1459 17.216C56.1539 17.216 54.5699 16.604 53.3939 15.38C52.2299 14.144 51.6479 12.47 51.6479 10.358C51.6479 8.28202 52.2539 6.61402 53.4659 5.35402C54.6779 4.09402 56.2799 3.46402 58.2719 3.46402C59.9399 3.46402 61.326 3.90802 62.43 4.79602C63.546 5.68402 64.206 6.87202 64.41 8.36002H61.3319C61.1279 7.68802 60.756 7.17202 60.216 6.81202C59.6759 6.45202 59.0039 6.27202 58.1999 6.27202C57.1199 6.27202 56.2679 6.63202 55.6439 7.35202C55.0319 8.07202 54.7259 9.06802 54.7259 10.34C54.7259 11.588 55.0379 12.578 55.6619 13.31C56.2859 14.042 57.1319 14.408 58.1999 14.408C59.0159 14.408 59.7059 14.222 60.2699 13.85C60.8459 13.466 61.2239 12.944 61.4039 12.284H64.428C64.188 13.772 63.4979 14.966 62.358 15.866C61.2179 16.766 59.8139 17.216 58.1459 17.216Z" fill="white"/>
<path d="M0 10C0 4.47715 4.71279 0 10.5263 0H29.4737C35.2872 0 40 4.47715 40 10V28C40 33.5228 35.2872 38 29.4737 38H10.5263C4.71279 38 0 33.5228 0 28V10Z" fill="#3C50E0"/>
<path d="M23.2042 26H20.3782V12.68H23.2042L27.1642 22.616L31.1422 12.68H34.0042V26H31.1782V23.21C31.1782 20.87 31.2262 19.37 31.3222 18.71L28.4962 26H25.8322L23.0242 18.71C23.1442 19.442 23.2042 20.63 23.2042 22.274V26Z" fill="white"/>
<path d="M12.1459 26.216C10.1539 26.216 8.56995 25.604 7.39395 24.38C6.22995 23.144 5.64795 21.47 5.64795 19.358C5.64795 17.282 6.25395 15.614 7.46595 14.354C8.67795 13.094 10.2799 12.464 12.2719 12.464C13.9399 12.464 15.326 12.908 16.43 13.796C17.546 14.684 18.206 15.872 18.41 17.36H15.3319C15.1279 16.688 14.756 16.172 14.216 15.812C13.6759 15.452 13.0039 15.272 12.1999 15.272C11.1199 15.272 10.2679 15.632 9.64395 16.352C9.03195 17.072 8.72595 18.068 8.72595 19.34C8.72595 20.588 9.03795 21.578 9.66195 22.31C10.2859 23.042 11.1319 23.408 12.1999 23.408C13.0159 23.408 13.7059 23.222 14.2699 22.85C14.8459 22.466 15.2239 21.944 15.4039 21.284H18.428C18.188 22.772 17.4979 23.966 16.358 24.866C15.2179 25.766 13.8139 26.216 12.1459 26.216Z" fill="white"/>
</svg>
